<svg width="146" height="118" viewBox="0 0 146 118" fill="none" xmlns="http://www.w3.org/2000/svg">
<g id="illustration" clip-path="url(#clip0_1_588)">
<g id="group">
<path id="vector" d="M144.794 114.804H143.29C142.625 114.804 142.084 115.344 142.084 116.008C142.084 116.671 142.625 117.211 143.29 117.211H144.794C145.459 117.211 146 116.671 146 116.008C146 115.344 145.459 114.804 144.794 114.804Z" fill="white"/>
<path id="vector_2" d="M138.929 114.804H27.9369C27.272 114.804 26.7311 115.344 26.7311 116.008C26.7311 116.671 27.272 117.211 27.9369 117.211H138.929C139.594 117.211 140.134 116.671 140.134 116.008C140.134 115.344 139.594 114.804 138.929 114.804Z" fill="white"/>
<path id="vector_3" d="M21.8513 114.804H8.79579C8.13089 114.804 7.58997 115.344 7.58997 116.008C7.58997 116.671 8.13089 117.211 8.79579 117.211H21.8513C22.5162 117.211 23.0571 116.671 23.0571 116.008C23.0571 115.344 22.5162 114.804 21.8513 114.804Z" fill="white"/>
<path id="vector_4" d="M1.20582 114.804C0.890278 114.804 0.574737 114.933 0.354984 115.158C0.129597 115.383 0 115.693 0 116.008C0 116.322 0.129597 116.632 0.354984 116.857C0.580371 117.082 0.890278 117.211 1.20582 117.211C1.52136 117.211 1.8369 117.082 2.05666 116.857C2.28204 116.632 2.41164 116.322 2.41164 116.008C2.41164 115.693 2.28204 115.378 2.05666 115.158C1.83127 114.933 1.52136 114.804 1.20582 114.804Z" fill="white"/>
</g>
<g id="group_2">
<g id="group_3">
<path id="vector_5" d="M30.8665 22.3837C30.9397 22.4568 31.0299 22.4906 31.1257 22.4906C31.2215 22.4906 31.3116 22.4568 31.3849 22.3837C31.5258 22.2431 31.5258 22.0069 31.3849 21.8663L30.258 20.7415C30.1171 20.6009 29.8804 20.6009 29.7396 20.7415C29.5987 20.8821 29.5987 21.1183 29.7396 21.2589L30.8665 22.3837Z" fill="white"/>
<path id="vector_6" d="M30.9901 23.3961C30.9901 23.1936 30.8267 23.0305 30.6238 23.0305H29.0348C28.832 23.0305 28.6686 23.1936 28.6686 23.3961C28.6686 23.5985 28.832 23.7616 29.0348 23.7616H30.6238C30.8267 23.7616 30.9901 23.5985 30.9901 23.3961Z" fill="white"/>
<path id="vector_7" d="M30.9117 24.3859L29.7847 25.5107C29.6439 25.6513 29.6439 25.8875 29.7847 26.0281C29.858 26.1012 29.9481 26.135 30.0439 26.135C30.1397 26.135 30.2299 26.1012 30.3031 26.0281L31.4301 24.9033C31.5709 24.7627 31.5709 24.5265 31.4301 24.3859C31.2892 24.2453 31.0525 24.2453 30.9117 24.3859Z" fill="white"/>
<path id="vector_8" d="M32.4443 24.7796C32.2414 24.7796 32.078 24.9427 32.078 25.1452V26.7311C32.078 26.9336 32.2414 27.0967 32.4443 27.0967C32.6471 27.0967 32.8105 26.9336 32.8105 26.7311V25.1452C32.8105 24.9427 32.6471 24.7796 32.4443 24.7796Z" fill="white"/>
<path id="vector_9" d="M33.9544 24.3409C33.8135 24.2003 33.5768 24.2003 33.436 24.3409C33.2951 24.4815 33.2951 24.7177 33.436 24.8583L34.5629 25.9831C34.6362 26.0562 34.7263 26.09 34.8221 26.09C34.9179 26.09 35.008 26.0562 35.0813 25.9831C35.2222 25.8425 35.2222 25.6063 35.0813 25.4657L33.9544 24.3409Z" fill="white"/>
<path id="vector_10" d="M35.791 22.9686H34.2021C33.9992 22.9686 33.8358 23.1317 33.8358 23.3342C33.8358 23.5367 33.9992 23.6998 34.2021 23.6998H35.791C35.9939 23.6998 36.1573 23.5367 36.1573 23.3342C36.1573 23.1317 35.9939 22.9686 35.791 22.9686Z" fill="white"/>
<path id="vector_11" d="M33.65 22.4456C33.7458 22.4456 33.8359 22.4119 33.9092 22.3387L35.0361 21.2139C35.177 21.0733 35.177 20.8371 35.0361 20.6965C34.8953 20.5559 34.6586 20.5559 34.5177 20.6965L33.3908 21.8213C33.2499 21.9619 33.2499 22.1981 33.3908 22.3387C33.4641 22.4119 33.5542 22.4456 33.65 22.4456Z" fill="white"/>
<path id="vector_12" d="M32.3819 21.9451C32.5847 21.9451 32.7481 21.782 32.7481 21.5795V19.9935C32.7481 19.7911 32.5847 19.628 32.3819 19.628C32.179 19.628 32.0156 19.7911 32.0156 19.9935V21.5795C32.0156 21.782 32.179 21.9451 32.3819 21.9451Z" fill="white"/>
</g>
<path id="vector_13" d="M61.6998 22.0632C61.2096 21.7201 60.849 21.197 60.725 20.5615C60.6349 20.1116 60.68 19.6504 60.8434 19.223C60.9166 19.0374 61.1251 18.9474 61.3054 19.0205C61.4914 19.0936 61.5815 19.3017 61.5083 19.4817C61.3899 19.7798 61.3618 20.106 61.4237 20.4209C61.6041 21.332 62.4943 21.9338 63.4128 21.7538C64.3256 21.5739 64.9285 20.6853 64.7482 19.7685C64.6637 19.3242 64.4101 18.9474 64.0326 18.6943C63.6551 18.4413 63.2043 18.3513 62.7648 18.4413C62.5732 18.4806 62.3816 18.3513 62.3478 18.1601C62.3084 17.9688 62.438 17.7776 62.6296 17.7439C63.2606 17.6201 63.903 17.7439 64.4383 18.1094C64.9736 18.4638 65.3342 19.0093 65.4582 19.6392C65.7117 20.9383 64.8609 22.2038 63.5593 22.4625C62.8888 22.5918 62.2295 22.4343 61.7111 22.0688L61.6998 22.0632Z" fill="white"/>
<g id="group_4">
<path id="vector_14" d="M82.6886 23.9078C82.7562 23.9753 82.8408 24.0034 82.9253 24.0034C83.0098 24.0034 83.0943 23.9697 83.1619 23.9078C83.2915 23.7785 83.2915 23.5648 83.1619 23.4354L82.1364 22.4118C82.0068 22.2825 81.7927 22.2825 81.6631 22.4118C81.5335 22.5412 81.5335 22.7549 81.6631 22.8843L82.6886 23.9078Z" fill="white"/>
<path id="vector_15" d="M82.8071 24.8302C82.8071 24.6446 82.655 24.4984 82.4747 24.4984H81.0209C80.835 24.4984 80.6885 24.6502 80.6885 24.8302C80.6885 25.0102 80.8406 25.162 81.0209 25.162H82.4747C82.6606 25.162 82.8071 25.0102 82.8071 24.8302Z" fill="white"/>
<path id="vector_16" d="M82.7338 25.7357L81.7083 26.7592C81.5787 26.8886 81.5787 27.1023 81.7083 27.2317C81.7759 27.2991 81.8604 27.3273 81.9449 27.3273C82.0295 27.3273 82.114 27.2935 82.1816 27.2317L83.2071 26.2081C83.3367 26.0787 83.3367 25.865 83.2071 25.7357C83.0775 25.6063 82.8634 25.6063 82.7338 25.7357Z" fill="white"/>
<path id="vector_17" d="M84.1309 26.0956C83.945 26.0956 83.7985 26.2475 83.7985 26.4274V27.8784C83.7985 28.064 83.9506 28.2103 84.1309 28.2103C84.3112 28.2103 84.4633 28.0584 84.4633 27.8784V26.4274C84.4633 26.2418 84.3112 26.0956 84.1309 26.0956Z" fill="white"/>
<path id="vector_18" d="M85.5114 25.6963C85.3818 25.5669 85.1677 25.5669 85.0381 25.6963C84.9085 25.8256 84.9085 26.0394 85.0381 26.1687L86.0636 27.1923C86.1312 27.2598 86.2158 27.2879 86.3003 27.2879C86.3848 27.2879 86.4693 27.2542 86.5369 27.1923C86.6665 27.0629 86.6665 26.8492 86.5369 26.7199L85.5114 25.6963Z" fill="white"/>
<path id="vector_19" d="M87.1797 24.4421H85.726C85.5401 24.4421 85.3936 24.594 85.3936 24.774C85.3936 24.9539 85.5457 25.1058 85.726 25.1058H87.1797C87.3657 25.1058 87.5122 24.9539 87.5122 24.774C87.5122 24.594 87.3601 24.4421 87.1797 24.4421Z" fill="white"/>
<path id="vector_20" d="M85.2355 23.9641C85.32 23.9641 85.4045 23.9304 85.4721 23.8685L86.4976 22.8449C86.6272 22.7156 86.6272 22.5019 86.4976 22.3725C86.368 22.2431 86.1539 22.2431 86.0243 22.3725L84.9988 23.3961C84.8692 23.5254 84.8692 23.7391 84.9988 23.8685C85.0664 23.936 85.1509 23.9641 85.2355 23.9641Z" fill="white"/>
<path id="vector_21" d="M84.0691 23.5085C84.2551 23.5085 84.4016 23.3567 84.4016 23.1767V21.7257C84.4016 21.5401 84.2494 21.3939 84.0691 21.3939C83.8888 21.3939 83.7367 21.5457 83.7367 21.7257V23.1767C83.7367 23.3623 83.8888 23.5085 84.0691 23.5085Z" fill="white"/>
</g>
<g id="group_5">
<path id="vector_22" d="M100.945 22.5018C100.556 22.5018 100.246 22.8168 100.246 23.1992V26.2306C100.246 26.6186 100.562 26.928 100.945 26.928C101.328 26.928 101.644 26.613 101.644 26.2306V23.1992C101.644 22.8112 101.328 22.5018 100.945 22.5018Z" fill="white"/>
<path id="vector_23" d="M100.945 29.4925C100.556 29.4925 100.246 29.8075 100.246 30.1899V33.2213C100.246 33.6093 100.562 33.9187 100.945 33.9187C101.328 33.9187 101.644 33.6037 101.644 33.2213V30.1899C101.644 29.8018 101.328 29.4925 100.945 29.4925Z" fill="white"/>
<path id="vector_24" d="M105.965 27.5129H102.928C102.539 27.5129 102.229 27.8278 102.229 28.2103C102.229 28.5927 102.545 28.9076 102.928 28.9076H105.965C106.354 28.9076 106.664 28.5927 106.664 28.2103C106.664 27.8278 106.348 27.5129 105.965 27.5129Z" fill="white"/>
<path id="vector_25" d="M98.9616 27.5129H95.9245C95.5357 27.5129 95.2258 27.8278 95.2258 28.2103C95.2258 28.5927 95.5414 28.9076 95.9245 28.9076H98.9616C99.3504 28.9076 99.6603 28.5927 99.6603 28.2103C99.6603 27.8278 99.3448 27.5129 98.9616 27.5129Z" fill="white"/>
</g>
<path id="vector_26" d="M44.4458 13.7508C42.9188 13.7508 41.6736 12.5079 41.6736 10.9837C41.6736 9.45962 42.9188 8.21671 44.4458 8.21671C45.9728 8.21671 47.2181 9.45962 47.2181 10.9837C47.2181 12.5079 45.9728 13.7508 44.4458 13.7508ZM44.4458 9.03782C43.3696 9.03782 42.4962 9.90955 42.4962 10.9837C42.4962 12.0579 43.3696 12.9297 44.4458 12.9297C45.5221 12.9297 46.3954 12.0579 46.3954 10.9837C46.3954 9.90955 45.5221 9.03782 44.4458 9.03782Z" fill="white"/>
<path id="vector_27" d="M85.2694 5.95586C84.3002 5.95586 83.5114 5.16849 83.5114 4.20115C83.5114 3.23381 84.3002 2.44644 85.2694 2.44644C86.2385 2.44644 87.0274 3.23381 87.0274 4.20115C87.0274 5.16849 86.2385 5.95586 85.2694 5.95586ZM85.2694 2.96948C84.5876 2.96948 84.0354 3.52064 84.0354 4.20115C84.0354 4.88166 84.5876 5.43282 85.2694 5.43282C85.9512 5.43282 86.5034 4.88166 86.5034 4.20115C86.5034 3.52064 85.9512 2.96948 85.2694 2.96948Z" fill="white"/>
<path id="vector_28" d="M70.9176 9.49341L69.2553 7.83431L70.9176 6.17521C71.0641 6.02899 71.0641 5.78715 70.9176 5.6353C70.7711 5.48908 70.5288 5.48908 70.3766 5.6353L68.7144 7.2944L67.0522 5.6353C66.9057 5.48908 66.6634 5.48908 66.5112 5.6353C66.3647 5.78153 66.3647 6.02336 66.5112 6.17521L68.1735 7.83431L66.5112 9.49341C66.3647 9.63964 66.3647 9.88147 66.5112 10.0333C66.6577 10.1795 66.9 10.1795 67.0522 10.0333L68.7144 8.37422L70.3766 10.0333C70.5231 10.1795 70.7654 10.1795 70.9176 10.0333C71.0641 9.88709 71.0641 9.64526 70.9176 9.49341Z" fill="white"/>
<path id="vector_29" d="M42.598 32.4733H45.0998V34.9704C45.0998 35.1953 45.2801 35.3753 45.5055 35.3753C45.7308 35.3753 45.9111 35.1953 45.9111 34.9704V32.4733H48.4129C48.6383 32.4733 48.8186 32.2933 48.8186 32.0684C48.8186 31.8434 48.6383 31.6634 48.4129 31.6634H45.9111V29.1663C45.9111 28.9414 45.7308 28.7614 45.5055 28.7614C45.2801 28.7614 45.0998 28.9414 45.0998 29.1663V31.6634H42.598C42.3726 31.6634 42.1923 31.8434 42.1923 32.0684C42.1923 32.2933 42.3726 32.4733 42.598 32.4733Z" fill="white"/>
<path id="vector_30" d="M92.6396 11.4168H95.316V14.0883C95.316 14.3301 95.5132 14.5213 95.7499 14.5213C95.9866 14.5213 96.1838 14.3245 96.1838 14.0883V11.4168H98.8602C99.1025 11.4168 99.2941 11.22 99.2941 10.9838C99.2941 10.7476 99.0969 10.5507 98.8602 10.5507H96.1838V7.87931C96.1838 7.63748 95.9866 7.44626 95.7499 7.44626C95.5132 7.44626 95.316 7.6431 95.316 7.87931V10.5507H92.6396C92.3973 10.5507 92.2057 10.7476 92.2057 10.9838C92.2057 11.22 92.4029 11.4168 92.6396 11.4168Z" fill="white"/>
<path id="vector_31" d="M55.7889 0.74797C55.7889 1.15853 55.4508 1.49597 55.0395 1.49597C54.6281 1.49597 54.29 1.15853 54.29 0.74797C54.29 0.337413 54.6281 -3.05176e-05 55.0395 -3.05176e-05C55.4508 -3.05176e-05 55.7889 0.337413 55.7889 0.74797Z" fill="white"/>
</g>
<g id="group_6">
<g id="group_7">
<g id="group_8">
<path id="vector_32" d="M86.92 80.3734V116.007H58.048V62.0052H86.92V70.5201V80.3734Z" fill="white" fill-opacity="0.2"/>
<path id="vector_33" d="M54.6052 92.4539C54.2897 92.4539 53.9742 92.5833 53.7544 92.8083C53.529 93.0332 53.3994 93.3425 53.3994 93.6575C53.3994 93.9724 53.529 94.2874 53.7544 94.5067C53.9798 94.7317 54.2897 94.861 54.6052 94.861C54.9208 94.861 55.2307 94.7317 55.4561 94.5067C55.6815 94.2818 55.8111 93.9724 55.8111 93.6575C55.8111 93.3425 55.6815 93.0276 55.4561 92.8083C55.2307 92.5833 54.9208 92.4539 54.6052 92.4539Z" fill="white"/>
<path id="vector_34" d="M97.2653 61.066H40.8115C38.7323 61.066 37.0363 62.7533 37.0363 64.8342V106.081C37.0363 112.217 42.0342 117.205 48.1816 117.205H89.8895C96.0369 117.205 101.035 112.217 101.035 106.081V64.8342C101.035 62.7589 99.3445 61.066 97.2596 61.066H97.2653ZM98.6289 106.081C98.6289 110.89 94.7071 114.804 89.8895 114.804H84.6774V77.0552C84.6774 76.3916 84.1365 75.8517 83.4716 75.8517C82.8067 75.8517 82.2658 76.3916 82.2658 77.0552V114.804H55.8053V101.199C55.8053 100.536 55.2644 99.9958 54.5995 99.9958C53.9346 99.9958 53.3937 100.536 53.3937 101.199V114.804H48.1816C43.364 114.804 39.4423 110.89 39.4423 106.081V64.8342C39.4423 64.0862 40.0508 63.4731 40.8058 63.4731H53.3937V88.4946C53.3937 89.1582 53.9346 89.6981 54.5995 89.6981C55.2644 89.6981 55.8053 89.1582 55.8053 88.4946V63.4731H82.2658V70.5201C82.2658 71.1837 82.8067 71.7236 83.4716 71.7236C84.1365 71.7236 84.6774 71.1837 84.6774 70.5201V63.4731H97.2653C98.0147 63.4731 98.6289 64.0805 98.6289 64.8342V106.081Z" fill="white"/>
</g>
<g id="group_9">
<g id="group_10">
<g id="group_11">
<path id="vector_35" d="M65.5874 88.5002C65.5874 90.4011 67.1313 91.9478 69.0415 91.9478C70.9516 91.9478 72.4955 90.4068 72.4955 88.5002H65.5874Z" fill="white" fill-opacity="0.1"/>
<path id="vector_36" d="M69.0415 92.5439C66.8045 92.5439 64.9845 90.7273 64.9845 88.4946C64.9845 88.1628 65.255 87.8928 65.5874 87.8928H72.4955C72.828 87.8928 73.0984 88.1628 73.0984 88.4946C73.0984 90.7273 71.2784 92.5439 69.0415 92.5439ZM66.2523 89.0964C66.5284 90.3786 67.6722 91.3404 69.0415 91.3404C70.4107 91.3404 71.5489 90.3786 71.8306 89.0964H66.2579H66.2523Z" fill="white"/>
</g>
<g id="group_12">
<path id="vector_37" d="M65.5876 80.9752C65.2552 80.9752 64.9847 80.7053 64.9847 80.3734C64.9847 79.5973 64.3536 78.9674 63.576 78.9674C62.7985 78.9674 62.1674 79.5973 62.1674 80.3734C62.1674 80.7053 61.8969 80.9752 61.5645 80.9752C61.232 80.9752 60.9615 80.7053 60.9615 80.3734C60.9615 78.9337 62.1336 77.7639 63.576 77.7639C65.0185 77.7639 66.1905 78.9337 66.1905 80.3734C66.1905 80.7053 65.9201 80.9752 65.5876 80.9752Z" fill="white"/>
<path id="vector_38" d="M76.5185 80.9752C76.1861 80.9752 75.9156 80.7053 75.9156 80.3734C75.9156 79.5973 75.2845 78.9674 74.5069 78.9674C73.7294 78.9674 73.0983 79.5973 73.0983 80.3734C73.0983 80.7053 72.8278 80.9752 72.4954 80.9752C72.1629 80.9752 71.8925 80.7053 71.8925 80.3734C71.8925 78.9337 73.0645 77.7639 74.5069 77.7639C75.9494 77.7639 77.1214 78.9337 77.1214 80.3734C77.1214 80.7053 76.851 80.9752 76.5185 80.9752Z" fill="white"/>
</g>
</g>
<g id="group_13">
<path id="vector_39" d="M61.5138 87.3473C62.3976 87.3473 63.1141 86.6322 63.1141 85.7501C63.1141 84.8679 62.3976 84.1528 61.5138 84.1528C60.63 84.1528 59.9136 84.8679 59.9136 85.7501C59.9136 86.6322 60.63 87.3473 61.5138 87.3473Z" fill="white" fill-opacity="0.2"/>
<path id="vector_40" d="M76.5695 87.3473C77.4533 87.3473 78.1697 86.6322 78.1697 85.7501C78.1697 84.8679 77.4533 84.1528 76.5695 84.1528C75.6857 84.1528 74.9692 84.8679 74.9692 85.7501C74.9692 86.6322 75.6857 87.3473 76.5695 87.3473Z" fill="white" fill-opacity="0.2"/>
</g>
</g>
<g id="group_14">
<path id="vector_41" d="M100.208 44.6197L89.1043 50.1071C87.9246 50.69 87.4417 52.1171 88.0258 53.2946L118.947 115.631C119.531 116.809 120.961 117.291 122.14 116.708L133.245 111.22C134.424 110.637 134.907 109.21 134.323 108.033L103.402 45.6962C102.818 44.5187 101.388 44.0368 100.208 44.6197Z" fill="white" fill-opacity="0.1"/>
<path id="vector_42" d="M124.21 99.0341L113.527 104.315L99.5247 76.0879L114.626 68.6248L128.628 96.852L124.21 99.0341Z" fill="white" fill-opacity="0.2"/>
<path id="vector_43" d="M138.731 79.1249C138.258 78.9506 137.722 79.0855 137.396 79.4736C136.669 80.3228 135.784 81.009 134.77 81.5095C132.781 82.4937 130.533 82.6399 128.431 81.9369C128.2 81.8582 127.98 81.7738 127.76 81.6782C128.234 79.8898 128.087 77.927 127.202 76.1385C126.29 74.3051 124.763 72.9778 122.988 72.2804C123.517 69.9239 125.067 67.8149 127.4 66.662C128.369 66.1839 129.4 65.9027 130.471 65.824C130.972 65.7846 131.4 65.4416 131.541 64.9579C131.682 64.4742 131.502 63.9512 131.096 63.6531C127.456 60.9929 122.965 59.5869 118.463 59.6881C117.877 59.6994 117.387 60.1324 117.297 60.7117C116.75 64.2943 116.818 67.8993 117.488 71.3974L105.712 47.6639C104.957 46.1398 103.65 44.9981 102.032 44.4582C100.415 43.9127 98.6854 44.0308 97.1584 44.7844L91.056 47.7989C89.529 48.5525 88.3852 49.8573 87.8442 51.4714C87.3033 53.0855 87.416 54.8121 88.1711 56.3362L116.615 113.679C117.725 115.923 119.99 117.222 122.345 117.222C123.298 117.222 124.261 117.009 125.168 116.564L131.271 113.55C132.798 112.796 133.941 111.491 134.482 109.877C135.023 108.263 134.911 106.537 134.156 105.012L125.044 86.6499C127.445 89.327 130.302 91.5822 133.525 93.3257C133.705 93.4213 133.902 93.4719 134.099 93.4719C134.46 93.4719 134.809 93.3144 135.046 93.0163C137.914 89.4057 139.497 84.8839 139.509 80.2778C139.509 79.7717 139.199 79.3217 138.72 79.1474L138.731 79.1249ZM126.825 79.7604C126.825 79.7604 126.825 79.7098 126.825 79.6817C126.825 79.7098 126.825 79.7323 126.825 79.7604ZM119.004 74.232C119.004 74.232 119.06 74.2207 119.083 74.2151C119.139 74.2039 119.196 74.1926 119.252 74.187C119.286 74.187 119.314 74.1757 119.348 74.1757C119.398 74.1701 119.449 74.1645 119.505 74.1589C119.539 74.1589 119.573 74.1532 119.607 74.1476C119.658 74.1476 119.708 74.142 119.759 74.1364C119.793 74.1364 119.821 74.1364 119.855 74.1364C119.906 74.1364 119.962 74.1364 120.013 74.1364C120.041 74.1364 120.075 74.1364 120.103 74.1364C120.159 74.1364 120.215 74.1364 120.277 74.1364C120.3 74.1364 120.328 74.1364 120.351 74.1364C120.424 74.1364 120.497 74.1476 120.57 74.1532C120.582 74.1532 120.587 74.1532 120.599 74.1532C120.683 74.1589 120.768 74.1701 120.852 74.1814C120.931 74.1926 121.016 74.2039 121.094 74.2207C121.111 74.2207 121.128 74.2263 121.145 74.232C121.207 74.2432 121.275 74.2601 121.337 74.2713C121.359 74.2713 121.382 74.2826 121.399 74.2882C121.461 74.3051 121.517 74.3163 121.579 74.3332C121.602 74.3388 121.624 74.3444 121.647 74.3501C121.709 74.3669 121.765 74.3838 121.821 74.4063C121.844 74.4119 121.861 74.4176 121.883 74.4288C121.945 74.4513 122.007 74.4738 122.069 74.4963C122.086 74.5019 122.103 74.5076 122.12 74.5132C122.193 74.5413 122.261 74.5694 122.334 74.6032C122.334 74.6032 122.345 74.6032 122.351 74.6088C122.509 74.6819 122.661 74.755 122.813 74.845C123.743 75.3737 124.526 76.1666 125.033 77.1902C125.523 78.1801 125.687 79.2486 125.568 80.2722C125.557 80.3622 125.546 80.4466 125.529 80.5365C125.456 80.9696 125.332 81.397 125.163 81.802C125.163 81.8132 125.157 81.8188 125.151 81.8301C125.123 81.8976 125.089 81.9651 125.056 82.0325C125.05 82.0438 125.044 82.0607 125.039 82.0719C125.005 82.1394 124.971 82.2013 124.937 82.2688C124.932 82.28 124.926 82.2912 124.92 82.3025C124.881 82.3756 124.841 82.4431 124.796 82.5162C124.796 82.5162 124.796 82.5218 124.791 82.5275C124.701 82.6737 124.605 82.8199 124.498 82.9605C124.487 82.9774 124.475 82.9943 124.464 83.0055C124.425 83.0561 124.385 83.1067 124.346 83.1574C124.329 83.1799 124.312 83.2023 124.289 83.2192C124.255 83.2642 124.216 83.3036 124.177 83.3486C124.154 83.3711 124.137 83.3936 124.115 83.4161C124.075 83.4554 124.041 83.4948 124.002 83.5342C123.979 83.5567 123.957 83.5792 123.934 83.6017C123.895 83.641 123.85 83.6804 123.805 83.7198C123.782 83.7366 123.765 83.7591 123.743 83.776C123.681 83.8322 123.613 83.8885 123.546 83.9447L118.75 74.277C118.835 74.2545 118.914 74.2376 118.998 74.2207L119.004 74.232ZM122.988 73.5908C123.016 73.6021 123.044 73.6189 123.078 73.6302C123.05 73.6133 123.022 73.6021 122.988 73.5908ZM123.247 73.7202C123.281 73.7371 123.315 73.7539 123.348 73.7764C123.315 73.7595 123.281 73.7427 123.247 73.7202ZM123.506 73.8664C123.54 73.8889 123.574 73.9058 123.613 73.9283C123.579 73.9058 123.546 73.8889 123.506 73.8664ZM123.76 74.0239C123.793 74.0464 123.833 74.0689 123.867 74.097C123.833 74.0745 123.793 74.0464 123.76 74.0239ZM125.428 75.5761C125.467 75.6267 125.501 75.6717 125.535 75.7223C125.501 75.6717 125.461 75.6267 125.428 75.5761ZM126.245 76.9653C126.199 76.8697 126.154 76.7684 126.109 76.6728C126.16 76.7684 126.205 76.8697 126.245 76.9653ZM126.797 79.1868C126.797 79.153 126.797 79.1193 126.785 79.0855C126.785 79.1193 126.791 79.153 126.797 79.1868ZM126.639 78.1632C126.628 78.1069 126.616 78.0563 126.6 78.0001C126.611 78.0563 126.628 78.1069 126.639 78.1632ZM126.47 77.5614C126.453 77.4996 126.43 77.4433 126.408 77.3814C126.43 77.4433 126.447 77.4996 126.47 77.5614ZM126.797 79.991C126.797 79.991 126.797 80.0191 126.797 80.036C126.797 80.0191 126.797 80.0079 126.797 79.991ZM125.715 75.9979C125.681 75.9417 125.647 75.8911 125.608 75.8405C125.642 75.8911 125.681 75.9473 125.715 75.9979ZM126.104 76.6728C126.053 76.5772 126.002 76.476 125.952 76.386C126.002 76.4816 126.053 76.5772 126.104 76.6728ZM125.895 76.2904C125.861 76.2285 125.822 76.1667 125.782 76.1048C125.822 76.1667 125.856 76.2285 125.895 76.2904ZM124.92 74.9912C124.881 74.9462 124.836 74.9069 124.796 74.8675C124.836 74.9069 124.881 74.9518 124.92 74.9912ZM124.244 74.3782C124.284 74.4063 124.317 74.4401 124.351 74.4682C124.317 74.4401 124.278 74.4063 124.244 74.3782ZM119.528 62.1009C122.21 62.1965 124.853 62.8882 127.236 64.103C126.926 64.2211 126.616 64.3561 126.318 64.508C123.309 65.9927 121.309 68.7091 120.627 71.7518C120.424 71.7349 120.215 71.7293 120.013 71.7293C119.32 68.5854 119.156 65.3403 119.534 62.1009H119.528ZM90.3235 55.262C89.8502 54.3115 89.7826 53.2373 90.1207 52.2363C90.4587 51.2352 91.1687 50.4197 92.121 49.9529L98.2233 46.9384C100.184 45.9711 102.573 46.7753 103.542 48.7325L111.577 64.9298L98.3585 71.4593L90.3235 55.262ZM131.986 106.07C132.46 107.02 132.527 108.094 132.189 109.096C131.851 110.097 131.141 110.912 130.189 111.379L124.086 114.393C122.126 115.361 119.736 114.556 118.767 112.599L113.431 101.84L123.179 97.0263L126.65 95.311L131.986 106.07ZM125.444 93.2188L112.502 99.6134L99.5644 73.5402L112.507 67.1457L125.444 93.2188ZM125.574 83.5342C125.613 83.4779 125.653 83.4217 125.692 83.3598C125.653 83.4161 125.619 83.4779 125.574 83.5342ZM133.756 90.688C130.938 89.0345 128.453 86.9424 126.357 84.4959C126.509 84.299 126.65 84.0966 126.78 83.8885C127.062 84.0122 127.343 84.1247 127.636 84.2203C130.347 85.1314 133.254 84.9402 135.818 83.6748C136.173 83.5004 136.522 83.3036 136.855 83.0899C136.415 85.8175 135.356 88.4271 133.756 90.688Z" fill="white"/>
</g>
</g>
<g id="group_15">
<path id="vector_44" d="M57.6484 46.9272C57.4399 46.9272 57.237 46.8203 57.1244 46.6291L54.5155 42.1186C54.3465 41.8318 54.4479 41.4606 54.7353 41.2975C55.0226 41.1288 55.3945 41.23 55.5579 41.5168L58.1668 46.0273C58.3358 46.3141 58.2344 46.6853 57.947 46.8484C57.8512 46.9047 57.7498 46.9272 57.6484 46.9272Z" fill="white"/>
<path id="vector_45" d="M53.7045 40.1108C53.496 40.1108 53.2932 40.0039 53.1805 39.8127L52.7297 39.0366C52.5607 38.7498 52.6621 38.3786 52.9495 38.2155C53.2369 38.0524 53.6087 38.148 53.7721 38.4348L54.2229 39.2109C54.392 39.4978 54.2905 39.869 54.0032 40.0321C53.9074 40.0883 53.806 40.1108 53.7045 40.1108Z" fill="white"/>
<path id="vector_46" d="M49.3202 55.2733C49.2188 55.2733 49.1117 55.2451 49.0216 55.1945L45.8211 53.3498C45.5337 53.1811 45.4323 52.8155 45.6013 52.5287C45.7704 52.2419 46.1366 52.1407 46.424 52.3094L49.6245 54.1541C49.9118 54.3228 50.0133 54.6884 49.8442 54.9752C49.7315 55.1664 49.5287 55.2733 49.3202 55.2733Z" fill="white"/>
<path id="vector_47" d="M42.6886 51.4545C42.5872 51.4545 42.4801 51.4264 42.39 51.3758L41.4208 50.819C41.1334 50.6503 41.032 50.2847 41.201 49.9979C41.3701 49.7111 41.7363 49.6098 42.0237 49.7786L42.9929 50.3353C43.2802 50.5041 43.3817 50.8696 43.2126 51.1565C43.0999 51.3477 42.8971 51.4545 42.6886 51.4545Z" fill="white"/>
<path id="vector_48" d="M80.4466 46.8709C80.3452 46.8709 80.2381 46.8428 80.148 46.7922C79.8606 46.6235 79.7592 46.2579 79.9282 45.9711L82.0976 42.2142C82.2666 41.9274 82.6329 41.8261 82.9202 41.9949C83.2076 42.1636 83.309 42.5292 83.14 42.816L80.9706 46.5729C80.8579 46.7641 80.6551 46.8709 80.4466 46.8709Z" fill="white"/>
<path id="vector_49" d="M84.8358 39.2841C84.678 39.2841 84.5203 39.2222 84.4076 39.1097C84.2949 38.9972 84.2329 38.8398 84.2329 38.6823C84.2329 38.5248 84.2949 38.3673 84.4076 38.2605C84.633 38.0355 85.0387 38.0355 85.2584 38.2605C85.3711 38.373 85.4331 38.5248 85.4331 38.6823C85.4331 38.8398 85.3655 38.9972 85.2584 39.1097C85.1457 39.2222 84.9936 39.2841 84.8358 39.2841Z" fill="white"/>
<path id="vector_50" d="M69.0416 43.8508C68.7092 43.8508 68.4387 43.5808 68.4387 43.249V38.6823C68.4387 38.3505 68.7092 38.0805 69.0416 38.0805C69.3741 38.0805 69.6445 38.3505 69.6445 38.6823V43.249C69.6445 43.5808 69.3741 43.8508 69.0416 43.8508Z" fill="white"/>
<path id="vector_51" d="M69.0416 36.1346C68.7092 36.1346 68.4387 35.8646 68.4387 35.5328V34.4811C68.4387 34.1493 68.7092 33.8793 69.0416 33.8793C69.3741 33.8793 69.6445 34.1493 69.6445 34.4811V35.5328C69.6445 35.8646 69.3741 36.1346 69.0416 36.1346Z" fill="white"/>
</g>
</g>
</g>
<defs>
<clipPath id="clip0_1_588">
<rect width="146" height="118" fill="white"/>
</clipPath>
</defs>
</svg>
